<mxfile host="app.diagrams.net" agent="Mozilla/5.0 (Windows NT 10.0; Win64; x64) AppleWebKit/537.36 (KHTML, like Gecko) Chrome/142.0.0.0 Safari/537.36" version="28.2.8">
  <diagram name="Page-1" id="0783ab3e-0a74-02c8-0abd-f7b4e66b4bec">
    <mxGraphModel dx="1647" dy="1298" grid="1" gridSize="10" guides="1" tooltips="1" connect="1" arrows="1" fold="1" page="1" pageScale="1" pageWidth="850" pageHeight="1100" background="none" math="0" shadow="0">
      <root>
        <mxCell id="0" />
        <mxCell id="1" parent="0" />
        <mxCell id="1c1d494c118603dd-1" value="Sistem Manajemen Properti" style="swimlane;html=1;childLayout=stackLayout;startSize=20;rounded=0;shadow=0;comic=0;labelBackgroundColor=none;strokeWidth=1;fontFamily=Verdana;fontSize=12;align=center;" parent="1" vertex="1">
          <mxGeometry x="40" y="30" width="500" height="990" as="geometry" />
        </mxCell>
        <mxCell id="1c1d494c118603dd-2" value="Agen Properti" style="swimlane;html=1;startSize=20;" parent="1c1d494c118603dd-1" vertex="1">
          <mxGeometry y="20" width="250" height="970" as="geometry" />
        </mxCell>
        <mxCell id="1c1d494c118603dd-6" value="memilih menu jual/tambah" style="rounded=1;whiteSpace=wrap;html=1;shadow=0;comic=0;labelBackgroundColor=none;strokeWidth=1;fontFamily=Verdana;fontSize=12;align=center;arcSize=50;" parent="1c1d494c118603dd-2" vertex="1">
          <mxGeometry x="75" y="185" width="100" height="30" as="geometry" />
        </mxCell>
        <mxCell id="60571a20871a0731-8" value="Buka Aplikasi" style="rounded=1;whiteSpace=wrap;html=1;shadow=0;comic=0;labelBackgroundColor=none;strokeWidth=1;fontFamily=Verdana;fontSize=12;align=center;arcSize=50;" parent="1c1d494c118603dd-2" vertex="1">
          <mxGeometry x="75" y="120" width="100" height="30" as="geometry" />
        </mxCell>
        <mxCell id="SfRz5qBFP8YcI-cKMZ4R-9" value="Masukkan jenis &amp;amp; data properti" style="rounded=1;whiteSpace=wrap;html=1;shadow=0;comic=0;labelBackgroundColor=none;strokeWidth=1;fontFamily=Verdana;fontSize=12;align=center;arcSize=50;" vertex="1" parent="1c1d494c118603dd-2">
          <mxGeometry x="62.5" y="320" width="125" height="30" as="geometry" />
        </mxCell>
        <mxCell id="60571a20871a0731-4" value="" style="ellipse;whiteSpace=wrap;html=1;rounded=0;shadow=0;comic=0;labelBackgroundColor=none;strokeWidth=1;fillColor=#000000;fontFamily=Verdana;fontSize=12;align=center;" parent="1c1d494c118603dd-2" vertex="1">
          <mxGeometry x="105" y="50" width="40" height="40" as="geometry" />
        </mxCell>
        <mxCell id="1c1d494c118603dd-27" style="edgeStyle=orthogonalEdgeStyle;rounded=0;html=1;labelBackgroundColor=none;startArrow=none;startFill=0;startSize=5;endArrow=classicThin;endFill=1;endSize=5;jettySize=auto;orthogonalLoop=1;strokeWidth=1;fontFamily=Verdana;fontSize=12" parent="1c1d494c118603dd-2" source="60571a20871a0731-4" target="60571a20871a0731-8" edge="1">
          <mxGeometry relative="1" as="geometry" />
        </mxCell>
        <mxCell id="SfRz5qBFP8YcI-cKMZ4R-28" style="edgeStyle=orthogonalEdgeStyle;rounded=0;orthogonalLoop=1;jettySize=auto;html=1;entryX=0.5;entryY=0;entryDx=0;entryDy=0;" edge="1" parent="1c1d494c118603dd-2" source="SfRz5qBFP8YcI-cKMZ4R-19" target="SfRz5qBFP8YcI-cKMZ4R-26">
          <mxGeometry relative="1" as="geometry" />
        </mxCell>
        <mxCell id="SfRz5qBFP8YcI-cKMZ4R-19" value="Pilih properti yang ingin dijual" style="rounded=1;whiteSpace=wrap;html=1;shadow=0;comic=0;labelBackgroundColor=none;strokeWidth=1;fontFamily=Verdana;fontSize=12;align=center;arcSize=50;" vertex="1" parent="1c1d494c118603dd-2">
          <mxGeometry x="57.5" y="380" width="135" height="30" as="geometry" />
        </mxCell>
        <mxCell id="SfRz5qBFP8YcI-cKMZ4R-26" value="Konfirmasi&amp;nbsp;&lt;div&gt;penjualan properti&lt;/div&gt;" style="rounded=1;whiteSpace=wrap;html=1;shadow=0;comic=0;labelBackgroundColor=none;strokeWidth=1;fontFamily=Verdana;fontSize=12;align=center;arcSize=50;" vertex="1" parent="1c1d494c118603dd-2">
          <mxGeometry x="57.5" y="500" width="135" height="30" as="geometry" />
        </mxCell>
        <mxCell id="SfRz5qBFP8YcI-cKMZ4R-33" value="&quot;Daftar Properti Penuh&quot;" style="rounded=1;whiteSpace=wrap;html=1;shadow=0;comic=0;labelBackgroundColor=none;strokeWidth=1;fontFamily=Verdana;fontSize=12;align=center;arcSize=50;" vertex="1" parent="1c1d494c118603dd-2">
          <mxGeometry x="61.25" y="600" width="127.5" height="30" as="geometry" />
        </mxCell>
        <mxCell id="SfRz5qBFP8YcI-cKMZ4R-49" value="&quot;Properti berhasil ditambahkan&quot;" style="rounded=1;whiteSpace=wrap;html=1;shadow=0;comic=0;labelBackgroundColor=none;strokeWidth=1;fontFamily=Verdana;fontSize=12;align=center;arcSize=50;" vertex="1" parent="1c1d494c118603dd-2">
          <mxGeometry x="62.5" y="710" width="125" height="30" as="geometry" />
        </mxCell>
        <mxCell id="SfRz5qBFP8YcI-cKMZ4R-50" value="&quot;Properti berhasil dijual&quot;" style="rounded=1;whiteSpace=wrap;html=1;shadow=0;comic=0;labelBackgroundColor=none;strokeWidth=1;fontFamily=Verdana;fontSize=12;align=center;arcSize=50;" vertex="1" parent="1c1d494c118603dd-2">
          <mxGeometry x="62.5" y="770" width="125" height="30" as="geometry" />
        </mxCell>
        <mxCell id="1c1d494c118603dd-3" value="Sistem" style="swimlane;html=1;startSize=20;" parent="1c1d494c118603dd-1" vertex="1">
          <mxGeometry x="250" y="20" width="250" height="970" as="geometry" />
        </mxCell>
        <mxCell id="SfRz5qBFP8YcI-cKMZ4R-2" value="Tampilkan menu utama" style="rounded=1;whiteSpace=wrap;html=1;shadow=0;comic=0;labelBackgroundColor=none;strokeWidth=1;fontFamily=Verdana;fontSize=12;align=center;arcSize=50;" vertex="1" parent="1c1d494c118603dd-3">
          <mxGeometry x="75" y="155" width="100" height="30" as="geometry" />
        </mxCell>
        <mxCell id="SfRz5qBFP8YcI-cKMZ4R-12" style="edgeStyle=orthogonalEdgeStyle;rounded=0;orthogonalLoop=1;jettySize=auto;html=1;entryX=1;entryY=0.5;entryDx=0;entryDy=0;" edge="1" parent="1c1d494c118603dd-3" source="SfRz5qBFP8YcI-cKMZ4R-7" target="SfRz5qBFP8YcI-cKMZ4R-18">
          <mxGeometry relative="1" as="geometry">
            <mxPoint x="190" y="410" as="targetPoint" />
            <Array as="points">
              <mxPoint x="203" y="260" />
              <mxPoint x="203" y="395" />
            </Array>
          </mxGeometry>
        </mxCell>
        <mxCell id="SfRz5qBFP8YcI-cKMZ4R-17" value="N" style="edgeLabel;html=1;align=center;verticalAlign=middle;resizable=0;points=[];" vertex="1" connectable="0" parent="SfRz5qBFP8YcI-cKMZ4R-12">
          <mxGeometry x="-0.8841" y="4" relative="1" as="geometry">
            <mxPoint y="2" as="offset" />
          </mxGeometry>
        </mxCell>
        <mxCell id="SfRz5qBFP8YcI-cKMZ4R-14" style="edgeStyle=orthogonalEdgeStyle;rounded=0;orthogonalLoop=1;jettySize=auto;html=1;entryX=0.5;entryY=0;entryDx=0;entryDy=0;" edge="1" parent="1c1d494c118603dd-3" source="SfRz5qBFP8YcI-cKMZ4R-7" target="SfRz5qBFP8YcI-cKMZ4R-13">
          <mxGeometry relative="1" as="geometry" />
        </mxCell>
        <mxCell id="SfRz5qBFP8YcI-cKMZ4R-16" value="Y" style="edgeLabel;html=1;align=center;verticalAlign=middle;resizable=0;points=[];" vertex="1" connectable="0" parent="SfRz5qBFP8YcI-cKMZ4R-14">
          <mxGeometry x="-0.7445" relative="1" as="geometry">
            <mxPoint y="4" as="offset" />
          </mxGeometry>
        </mxCell>
        <mxCell id="SfRz5qBFP8YcI-cKMZ4R-7" value="tambah?" style="rhombus;whiteSpace=wrap;html=1;" vertex="1" parent="1c1d494c118603dd-3">
          <mxGeometry x="92.5" y="230" width="65" height="60" as="geometry" />
        </mxCell>
        <mxCell id="SfRz5qBFP8YcI-cKMZ4R-13" value="Tampilkan form input properti" style="rounded=1;whiteSpace=wrap;html=1;shadow=0;comic=0;labelBackgroundColor=none;strokeWidth=1;fontFamily=Verdana;fontSize=12;align=center;arcSize=50;" vertex="1" parent="1c1d494c118603dd-3">
          <mxGeometry x="67.5" y="320" width="115" height="30" as="geometry" />
        </mxCell>
        <mxCell id="SfRz5qBFP8YcI-cKMZ4R-18" value="Tampilkan daftar properti" style="rounded=1;whiteSpace=wrap;html=1;shadow=0;comic=0;labelBackgroundColor=none;strokeWidth=1;fontFamily=Verdana;fontSize=12;align=center;arcSize=50;" vertex="1" parent="1c1d494c118603dd-3">
          <mxGeometry x="67.5" y="380" width="115" height="30" as="geometry" />
        </mxCell>
        <mxCell id="SfRz5qBFP8YcI-cKMZ4R-25" style="edgeStyle=orthogonalEdgeStyle;rounded=0;orthogonalLoop=1;jettySize=auto;html=1;entryX=0.5;entryY=0;entryDx=0;entryDy=0;" edge="1" parent="1c1d494c118603dd-3" source="SfRz5qBFP8YcI-cKMZ4R-21" target="SfRz5qBFP8YcI-cKMZ4R-24">
          <mxGeometry relative="1" as="geometry" />
        </mxCell>
        <mxCell id="SfRz5qBFP8YcI-cKMZ4R-21" value="Cek jumlah properti &amp;lt;=100" style="rounded=1;whiteSpace=wrap;html=1;shadow=0;comic=0;labelBackgroundColor=none;strokeWidth=1;fontFamily=Verdana;fontSize=12;align=center;arcSize=50;" vertex="1" parent="1c1d494c118603dd-3">
          <mxGeometry x="67.5" y="438" width="115" height="30" as="geometry" />
        </mxCell>
        <mxCell id="SfRz5qBFP8YcI-cKMZ4R-31" style="edgeStyle=orthogonalEdgeStyle;rounded=0;orthogonalLoop=1;jettySize=auto;html=1;entryX=0.5;entryY=0;entryDx=0;entryDy=0;" edge="1" parent="1c1d494c118603dd-3" source="SfRz5qBFP8YcI-cKMZ4R-24" target="SfRz5qBFP8YcI-cKMZ4R-29">
          <mxGeometry relative="1" as="geometry" />
        </mxCell>
        <mxCell id="SfRz5qBFP8YcI-cKMZ4R-32" value="Y" style="edgeLabel;html=1;align=center;verticalAlign=middle;resizable=0;points=[];" vertex="1" connectable="0" parent="SfRz5qBFP8YcI-cKMZ4R-31">
          <mxGeometry x="-0.5487" y="-1" relative="1" as="geometry">
            <mxPoint as="offset" />
          </mxGeometry>
        </mxCell>
        <mxCell id="SfRz5qBFP8YcI-cKMZ4R-24" value="" style="rhombus;whiteSpace=wrap;html=1;" vertex="1" parent="1c1d494c118603dd-3">
          <mxGeometry x="102.5" y="486" width="45" height="40" as="geometry" />
        </mxCell>
        <mxCell id="SfRz5qBFP8YcI-cKMZ4R-29" value="Menyimpan ke&amp;nbsp;&lt;div&gt;daftar properti&lt;/div&gt;" style="rounded=1;whiteSpace=wrap;html=1;shadow=0;comic=0;labelBackgroundColor=none;strokeWidth=1;fontFamily=Verdana;fontSize=12;align=center;arcSize=50;" vertex="1" parent="1c1d494c118603dd-3">
          <mxGeometry x="67.5" y="560" width="115" height="30" as="geometry" />
        </mxCell>
        <mxCell id="SfRz5qBFP8YcI-cKMZ4R-30" style="edgeStyle=orthogonalEdgeStyle;rounded=0;orthogonalLoop=1;jettySize=auto;html=1;exitX=0.5;exitY=1;exitDx=0;exitDy=0;" edge="1" parent="1c1d494c118603dd-3" source="SfRz5qBFP8YcI-cKMZ4R-29" target="SfRz5qBFP8YcI-cKMZ4R-29">
          <mxGeometry relative="1" as="geometry" />
        </mxCell>
        <mxCell id="SfRz5qBFP8YcI-cKMZ4R-47" value="Hapus properti terjual dari daftar properti" style="rounded=1;whiteSpace=wrap;html=1;shadow=0;comic=0;labelBackgroundColor=none;strokeWidth=1;fontFamily=Verdana;fontSize=12;align=center;arcSize=50;" vertex="1" parent="1c1d494c118603dd-3">
          <mxGeometry x="48.75" y="650" width="152.5" height="30" as="geometry" />
        </mxCell>
        <mxCell id="SfRz5qBFP8YcI-cKMZ4R-54" value="" style="ellipse;html=1;shape=endState;fillColor=#FFFFFF;strokeColor=#000000;" vertex="1" parent="1c1d494c118603dd-3">
          <mxGeometry x="95" y="840" width="60" height="60" as="geometry" />
        </mxCell>
        <mxCell id="1c1d494c118603dd-28" style="edgeStyle=orthogonalEdgeStyle;rounded=0;html=1;entryX=0.5;entryY=0;labelBackgroundColor=none;startArrow=none;startFill=0;startSize=5;endArrow=classicThin;endFill=1;endSize=5;jettySize=auto;orthogonalLoop=1;strokeWidth=1;fontFamily=Verdana;fontSize=12;entryDx=0;entryDy=0;exitX=1;exitY=0.5;exitDx=0;exitDy=0;" parent="1c1d494c118603dd-1" source="60571a20871a0731-8" target="SfRz5qBFP8YcI-cKMZ4R-2" edge="1">
          <mxGeometry relative="1" as="geometry">
            <Array as="points">
              <mxPoint x="375" y="155" />
            </Array>
            <mxPoint x="353.5" y="180" as="targetPoint" />
          </mxGeometry>
        </mxCell>
        <mxCell id="SfRz5qBFP8YcI-cKMZ4R-5" style="edgeStyle=orthogonalEdgeStyle;rounded=0;orthogonalLoop=1;jettySize=auto;html=1;entryX=1;entryY=0.5;entryDx=0;entryDy=0;exitX=0.5;exitY=1;exitDx=0;exitDy=0;" edge="1" parent="1c1d494c118603dd-1" source="SfRz5qBFP8YcI-cKMZ4R-2" target="1c1d494c118603dd-6">
          <mxGeometry relative="1" as="geometry">
            <mxPoint x="190" y="200" as="targetPoint" />
            <Array as="points">
              <mxPoint x="375" y="219" />
            </Array>
          </mxGeometry>
        </mxCell>
        <mxCell id="SfRz5qBFP8YcI-cKMZ4R-8" style="edgeStyle=orthogonalEdgeStyle;rounded=0;orthogonalLoop=1;jettySize=auto;html=1;entryX=0;entryY=0.5;entryDx=0;entryDy=0;exitX=0.5;exitY=1;exitDx=0;exitDy=0;" edge="1" parent="1c1d494c118603dd-1" source="1c1d494c118603dd-6" target="SfRz5qBFP8YcI-cKMZ4R-7">
          <mxGeometry relative="1" as="geometry">
            <Array as="points">
              <mxPoint x="125" y="280" />
            </Array>
          </mxGeometry>
        </mxCell>
        <mxCell id="SfRz5qBFP8YcI-cKMZ4R-15" style="edgeStyle=orthogonalEdgeStyle;rounded=0;orthogonalLoop=1;jettySize=auto;html=1;entryX=1;entryY=0.5;entryDx=0;entryDy=0;" edge="1" parent="1c1d494c118603dd-1" source="SfRz5qBFP8YcI-cKMZ4R-13" target="SfRz5qBFP8YcI-cKMZ4R-9">
          <mxGeometry relative="1" as="geometry" />
        </mxCell>
        <mxCell id="SfRz5qBFP8YcI-cKMZ4R-20" style="edgeStyle=orthogonalEdgeStyle;rounded=0;orthogonalLoop=1;jettySize=auto;html=1;entryX=1;entryY=0.5;entryDx=0;entryDy=0;" edge="1" parent="1c1d494c118603dd-1" source="SfRz5qBFP8YcI-cKMZ4R-18" target="SfRz5qBFP8YcI-cKMZ4R-19">
          <mxGeometry relative="1" as="geometry" />
        </mxCell>
        <mxCell id="SfRz5qBFP8YcI-cKMZ4R-22" style="edgeStyle=orthogonalEdgeStyle;rounded=0;orthogonalLoop=1;jettySize=auto;html=1;entryX=0;entryY=0.5;entryDx=0;entryDy=0;exitX=0;exitY=0.5;exitDx=0;exitDy=0;" edge="1" parent="1c1d494c118603dd-1" source="SfRz5qBFP8YcI-cKMZ4R-9" target="SfRz5qBFP8YcI-cKMZ4R-21">
          <mxGeometry relative="1" as="geometry">
            <Array as="points">
              <mxPoint x="20" y="355" />
              <mxPoint x="20" y="473" />
            </Array>
          </mxGeometry>
        </mxCell>
        <mxCell id="SfRz5qBFP8YcI-cKMZ4R-35" style="edgeStyle=orthogonalEdgeStyle;rounded=0;orthogonalLoop=1;jettySize=auto;html=1;entryX=1;entryY=0.5;entryDx=0;entryDy=0;" edge="1" parent="1c1d494c118603dd-1" source="SfRz5qBFP8YcI-cKMZ4R-21" target="SfRz5qBFP8YcI-cKMZ4R-33">
          <mxGeometry relative="1" as="geometry">
            <Array as="points">
              <mxPoint x="460" y="473" />
              <mxPoint x="460" y="635" />
            </Array>
          </mxGeometry>
        </mxCell>
        <mxCell id="SfRz5qBFP8YcI-cKMZ4R-36" value="N" style="edgeLabel;html=1;align=center;verticalAlign=middle;resizable=0;points=[];" vertex="1" connectable="0" parent="SfRz5qBFP8YcI-cKMZ4R-35">
          <mxGeometry x="-0.9579" relative="1" as="geometry">
            <mxPoint x="3" as="offset" />
          </mxGeometry>
        </mxCell>
        <mxCell id="SfRz5qBFP8YcI-cKMZ4R-48" style="edgeStyle=orthogonalEdgeStyle;rounded=0;orthogonalLoop=1;jettySize=auto;html=1;entryX=0;entryY=0.5;entryDx=0;entryDy=0;exitX=0;exitY=0.5;exitDx=0;exitDy=0;" edge="1" parent="1c1d494c118603dd-1" source="SfRz5qBFP8YcI-cKMZ4R-26" target="SfRz5qBFP8YcI-cKMZ4R-47">
          <mxGeometry relative="1" as="geometry">
            <Array as="points">
              <mxPoint x="40" y="535" />
              <mxPoint x="40" y="685" />
            </Array>
          </mxGeometry>
        </mxCell>
        <mxCell id="SfRz5qBFP8YcI-cKMZ4R-52" style="edgeStyle=orthogonalEdgeStyle;rounded=0;orthogonalLoop=1;jettySize=auto;html=1;entryX=1;entryY=0.5;entryDx=0;entryDy=0;" edge="1" parent="1c1d494c118603dd-1" source="SfRz5qBFP8YcI-cKMZ4R-29" target="SfRz5qBFP8YcI-cKMZ4R-49">
          <mxGeometry relative="1" as="geometry">
            <Array as="points">
              <mxPoint x="480" y="595" />
              <mxPoint x="480" y="745" />
            </Array>
          </mxGeometry>
        </mxCell>
        <mxCell id="SfRz5qBFP8YcI-cKMZ4R-53" style="edgeStyle=orthogonalEdgeStyle;rounded=0;orthogonalLoop=1;jettySize=auto;html=1;entryX=1;entryY=0.5;entryDx=0;entryDy=0;exitX=0.5;exitY=1;exitDx=0;exitDy=0;" edge="1" parent="1c1d494c118603dd-1" source="SfRz5qBFP8YcI-cKMZ4R-47" target="SfRz5qBFP8YcI-cKMZ4R-50">
          <mxGeometry relative="1" as="geometry">
            <Array as="points">
              <mxPoint x="375" y="805" />
            </Array>
          </mxGeometry>
        </mxCell>
        <mxCell id="SfRz5qBFP8YcI-cKMZ4R-55" style="edgeStyle=orthogonalEdgeStyle;rounded=0;orthogonalLoop=1;jettySize=auto;html=1;entryX=0;entryY=0.5;entryDx=0;entryDy=0;" edge="1" parent="1c1d494c118603dd-1" source="SfRz5qBFP8YcI-cKMZ4R-49" target="SfRz5qBFP8YcI-cKMZ4R-54">
          <mxGeometry relative="1" as="geometry">
            <Array as="points">
              <mxPoint x="30" y="745" />
              <mxPoint x="30" y="890" />
            </Array>
          </mxGeometry>
        </mxCell>
        <mxCell id="SfRz5qBFP8YcI-cKMZ4R-58" style="edgeStyle=orthogonalEdgeStyle;rounded=0;orthogonalLoop=1;jettySize=auto;html=1;entryX=0.5;entryY=0;entryDx=0;entryDy=0;" edge="1" parent="1c1d494c118603dd-1" source="SfRz5qBFP8YcI-cKMZ4R-50" target="SfRz5qBFP8YcI-cKMZ4R-54">
          <mxGeometry relative="1" as="geometry">
            <Array as="points">
              <mxPoint x="125" y="850" />
              <mxPoint x="375" y="850" />
            </Array>
          </mxGeometry>
        </mxCell>
      </root>
    </mxGraphModel>
  </diagram>
</mxfile>
